<svg xmlns:xlink="http://www.w3.org/1999/xlink" width="155" height="102" xmlns="http://www.w3.org/2000/svg"><g fill="none" fill-rule="evenodd"><path d="M5 32.526c0 3.927-6.075 2.83-4.833-.85C1.066 29.01 5 29.695 5 32.526" fill="#27272A"></path><path d="M56 2.526c0 3.927-6.074 2.83-4.833-.85C52.065-.99 56-.305 56 2.526" fill="#A1A1AA"></path><path d="M71 45.02c0 3.143-4.86 2.265-3.866-.68.72-2.132 3.866-1.584 3.866.68" fill="#27272A"></path><path d="M108 23.526c0 3.928-6.074 2.83-4.833-.85.899-2.665 4.833-1.981 4.833.85" fill="#3F3F46"></path><path d="M155 98.526c0 3.928-6.074 2.83-4.833-.851.899-2.664 4.833-1.98 4.833.851" fill="#A1A1AA"></path><path d="M99 94.01c0 1.571-2.43 1.133-1.933-.34.36-1.066 1.933-.792 1.933.34" fill="#27272A"></path><path d="M27 101.01c0 1.571-2.43 1.133-1.933-.34.36-1.066 1.933-.791 1.933.34" fill="#E4E4E7"></path><path d="M144 9.01c0 1.571-2.43 1.133-1.933-.34.36-1.066 1.933-.792 1.933.34" fill="#27272A"></path><path d="M62 60.01c0 1.571-2.43 1.133-1.933-.34.36-1.066 1.933-.792 1.933.34" fill="#A1A1AA"></path><path d="M13 67.01c0 1.571-2.43 1.133-1.933-.34.36-1.066 1.933-.792 1.933.34" fill="#27272A"></path><path d="M152 40.526c0 3.927-6.074 2.83-4.833-.851.899-2.664 4.833-1.98 4.833.851" fill="#A1A1AA"></path><path d="M120 55.02c0 3.143-4.86 2.265-3.866-.68.719-2.131 3.866-1.584 3.866.68" fill="#27272A"></path></g></svg>