<svg xmlns:xlink="http://www.w3.org/1999/xlink" class="-mt-2" width="21" height="21" xmlns="http://www.w3.org/2000/svg"><g fill-rule="nonzero" fill="none"><path d="M7.517 20.35c-.107.307-.402.415-.844.39-.125-.042-.428-.219-.415-.318.012-.197.044-.392.096-.582.036-.103.923-1.603 1.227-2.104.296-.49.624-.959.983-1.405.728-.92 1.444-1.832 2.194-2.723.167-.2.348-.39.54-.566a20.312 20.312 0 0 0 1.845-1.936c.111-.102.204-.222.274-.354.629-.781 1.332-1.5 2.102-2.15.661-.453 1.31-.93 2.014-1.347.096-.06.18-.147.302-.158.26-.04.506-.143.715-.298.305-.189.637-.332.985-.425.178-.037.36-.052.542-.045.163-.007.155.23.117.28-.039.048.037.168.085.247.048.079 0 0 .032.094-.227.21-.468.407-.72.588-.358.348-.708.676-.805.769l-1.067.907c-.509.505-1.05 1.008-1.14 1.144a2.123 2.123 0 0 1-.372.3c-.077.037-1.488 1.682-1.543 1.747a5.74 5.74 0 0 1-.975.95.759.759 0 0 0-.193.184c-.49.605-1.046 1.155-1.561 1.74-.264.296-.503.61-.75.922-.023.065-.11.098-.162.154a1.89 1.89 0 0 0-.196.193c-.57.744-1.21 1.443-1.733 2.234-.117.18-.88.92-1.008 1.136-.13.217-.527.31-.57.432Z" fill="#A1A1AA"></path><path d="M1.984 18.76c.13.294-.07.55-.447.799-.125.08-.518.087-.565.04a2.692 2.692 0 0 1-.308-.504c-.007-.1-.308-1.744-.402-2.312a11.782 11.782 0 0 1-.115-1.637l-.102-3.343c-.006-.247.01-.494.046-.74.094-.847.122-1.699.084-2.548a1.377 1.377 0 0 0-.03-.422 16.024 16.024 0 0 1 .01-2.846c.151-.798.277-1.493.411-2.228-.007-.11-.015-.221.087-.32.143-.203.221-.44.226-.681a4.96 4.96 0 0 1 .239-.955A1.93 1.93 0 0 1 1.393.62c.09-.127.304-.021.33.047.027.07.18.058.278.062L2.1.722c.046.312.068.628.066.944.046.353.071.708.074 1.064l-.023 1.384c.049.693.001 1.423.023 1.572-.002.158-.02.314-.055.468.005.07.098 2.183.093 2.264.034.438.002.878-.094 1.308a.745.745 0 0 0 .018.262c.052.753-.004 1.503-.028 2.262l.08 1.144.015.211c-.005.088 0 .175.018.261.063.904-.004 1.817.104 2.727.014.211-.112 1.219-.073 1.458.038.24-.383.623-.333.71Z" fill="#231F20"></path></g></svg>