<svg xmlns:xlink="http://www.w3.org/1999/xlink" width="116" height="32" xmlns="http://www.w3.org/2000/svg"><g fill-rule="nonzero" fill="none"><path d="M29.123 14.777c.625 1.679.418 3.824-.309 5.719a14.799 14.799 0 0 1-2.57 4.391 14.328 14.328 0 0 1-3.956 3.193 15.738 15.738 0 0 1-9.91 1.74 14.053 14.053 0 0 1-7.799-3.9 15.525 15.525 0 0 1-4.178-7.645 15.813 15.813 0 0 1 .109-7.52 14.007 14.007 0 0 1 3.768-6.509 15.147 15.147 0 0 1 6.53-3.695 16.058 16.058 0 0 1 7.486-.205c2.941.618 5.633 2.1 7.732 4.26a15.028 15.028 0 0 1 2.475 3.51 14.625 14.625 0 0 1 1.323 4.077c.09.474.144.955.162 1.438.046.377-.02.76-.192 1.1-.106.11-.226-.045-.34-.476a3.415 3.415 0 0 1-.162-.628 9.995 9.995 0 0 0-.697-2.886 23.309 23.309 0 0 0-1.307-2.716 12.752 12.752 0 0 0-4.032-4.43 14.305 14.305 0 0 0-5.55-2.231c-.79-.142-1.59-.222-2.392-.238a15.014 15.014 0 0 0-2.404.124A14.346 14.346 0 0 0 7.14 3.278a12.79 12.79 0 0 0-5.851 8.567 15.124 15.124 0 0 0 .825 8.526 13.694 13.694 0 0 0 6.145 6.96 13.381 13.381 0 0 0 4.454 1.46 14.96 14.96 0 0 0 8.55-1.343 13.64 13.64 0 0 0 3.126-2.118 13.336 13.336 0 0 0 3.316-4.653c.329-.754.595-1.535.795-2.334.333-1.163.541-2.359.622-3.566Z" fill="#231F20"></path><path d="M20.788 20.028c.557-.108.97-.496.957-.835l-.01-.05c-.063-.33-.502-1.868-.914-3.806 0 0-.065-.26-.155-.71l-.025-.126a43.521 43.521 0 0 1-.717-5.76c-.108-.372-.33-.705-1.24-.528 0 0-.893.174-.983.79.042 1.475.288 3.06.482 4.096l.04.213c.12.61.21.985.21.985.598 2.808 1.11 3.82 1.191 4.06-.981-.459-3.086-1.571-5.022-3.076-2.698-2.091-3.721-3.756-3.861-3.848l-.012-.062c-.017-.1-.051-.328-.095-.756l-.01-.049c-.07-.362-.433-.702-1.124-.568-.708.138-1.056.599-1.138.803.018 1.261.304 2.915.522 4.036l.057.289c.12.595.206.976.206.976s.617 2.633 1.656 5.098c.166.583.896.561 1.182.505.304-.059.514-.236.5-.576l-.01-.049c-.092-.477-.854-3.645-1.132-5.02l-.053-.272c-.051-.263-.083-.514-.117-.78.176.187 2.143 1.754 5.058 3.256 2.935 1.516 3.985 1.876 4.557 1.764ZM57.497 23.21c.927 0 1.714-.51 1.798-1.075v-.084c0-.566-.225-3.25-.281-6.586 0 0-.024-.468-.028-1.266v-.176c0-1.922.084-5.54.646-9.751C59.576 3.622 59.323 3 57.806 3c0 0-1.488 0-1.825.99-.4 2.49-.496 5.234-.505 7.006v.286c0 1.045.027 1.696.027 1.696.054 3.107.283 4.976.454 6.027l.037.22c.077.45.138.716.155.847-1.432-1.074-4.465-3.59-7.105-6.699-2.99-3.513-4.292-6.206-4.78-7.198l-.07-.14a1.47 1.47 0 0 0-.15-.265l.001-.074c.003-.153.016-.542.084-1.311V4.3c0-.622-.478-1.3-1.63-1.3-1.179 0-1.881.65-2.078.961-.365 2.092-.421 4.918-.421 6.84v.396c.006 1.08.028 1.78.028 1.78l.001.024c.014.356.205 4.711 1.066 8.937.085 1.017 1.264 1.215 1.742 1.215.505 0 .898-.226.983-.791v-.085c0-.825-.24-6.386-.253-8.717v-.413c0-.452.028-.876.056-1.328.225.367 2.893 3.59 7.106 7.01 4.24 3.448 5.813 4.38 6.768 4.38Zm9.063-.961c2.5 0 4.522-1.866 4.522-4.155 0-2.29-2.023-4.155-4.522-4.155-2.472 0-4.494 1.865-4.494 4.155 0 2.289 2.022 4.155 4.494 4.155Zm0-1.866c-1.011 0-1.854-1.046-1.854-2.29 0-1.271.843-2.289 1.854-2.289 1.039 0 1.881 1.018 1.881 2.29 0 1.243-.842 2.289-1.881 2.289Zm9.343 1.866c1.961 0 3.168-2.255 3.642-3.204l.093-.188c.113-.226.169-.566.169-.876 0-.51-.169-1.018-.365-1.018-.085 0-.14.056-.225.226-.87 1.64-1.994 3.279-2.809 3.279-.477 0-.617-.82-.617-1.866v-1.017c0-2.064.168-4.58.224-6.756 1.405.057 2.837.085 3.96.085.59 0 2.444-.056 2.584-.113.085-.085.337-.48.337-.848 0-.254-.252-.96-.393-1.102-.28-.141-3.286-.283-4.325-.283-.758 0-1.46 0-2.135.028v-.31c0-2.092-.056-3.42-.14-3.618-.056-.142-.506-.48-.955-.48-.28 0-1.067.367-1.236.564-.112.255-.253 2.007-.309 3.958-2.078.14-3.286.31-3.314.31-.204.078-.223.622-.224.72v.015s0 .65.252.735c.028.029 1.433.142 3.258.226v.029c0 2.572.084 4.748.169 6.472v.066c.011.615.174 4.966 2.359 4.966Zm6.198-10.43c.898 0 1.657-.792 1.685-1.781v-.085c0-.99-.702-1.809-1.601-1.837H82.1c-.9 0-1.63.763-1.658 1.78v.085c0 1.018.675 1.81 1.601 1.838h.057Zm1.067 10.43c1.987 0 3.195-2.255 3.67-3.204l.093-.188c.113-.198.169-.509.169-.82v-.056c-.028-.51-.169-1.018-.365-1.018-.085 0-.14.056-.225.226-.87 1.64-2.022 3.279-2.809 3.279-.59 0-.73-1.074-.73-2.346 0-.876.084-2.346.084-3.166 0-.339-.028-.593-.056-.65-.14-.283-.561-.367-1.18-.367-.645 0-.954.113-1.123.367-.073.118-.131.819-.17 1.552l-.02.4a34.627 34.627 0 0 0-.034 1.27c0 2.685.758 4.72 2.696 4.72Zm7.798 0c2.5 0 4.522-1.866 4.522-4.155 0-2.29-2.022-4.155-4.522-4.155-2.471 0-4.493 1.865-4.493 4.155 0 2.289 2.022 4.155 4.493 4.155Zm0-1.866c-1.01 0-1.853-1.046-1.853-2.29 0-1.271.842-2.289 1.853-2.289 1.04 0 1.882 1.018 1.882 2.29 0 1.243-.843 2.289-1.882 2.289Zm9.343 1.866c2.107 0 3.343-2.6 3.764-3.392.084-.17.14-.453.14-.707v-.17c0-.508-.14-1.017-.337-1.017-.084 0-.14.056-.224.226-.871 1.64-2.023 3.279-2.809 3.279-.477 0-.618-.82-.618-1.866v-1.017c0-2.94.253-6.727.253-9.3 0-2.091-.084-3.42-.14-3.617-.085-.142-.534-.48-.983-.48-.281 0-1.068.367-1.208.564-.169.368-.337 3.364-.337 5.993 0 2.572.056 4.748.14 6.472.028.198.056 5.032 2.36 5.032ZM108.613 32c1.349 0 3.483-1.018 3.764-4.353.112-1.243.197-3.024.225-4.89 1.18-.96 2.359-2.176 3.23-3.9.112-.198.168-.453.168-.707v-.17c0-.508-.14-1.017-.337-1.017-.084 0-.169.056-.225.226-.702 1.555-1.713 2.714-2.808 3.646 0-3.335-.056-6.388-.113-6.529-.14-.283-.561-.367-1.18-.367-.645 0-.954.113-1.123.367-.14.226-.168 1.187-.168 3.307v.622c-.758 1.215-1.601 2.233-2.219 2.233-.59 0-.73-1.074-.73-2.346 0-.876.084-2.346.084-3.166 0-.339-.028-.593-.056-.65-.14-.283-.674-.367-1.32-.367-.618 0-.955.113-1.124.367-.112.226-.224 2.572-.224 3.222 0 2.685.899 4.72 2.836 4.72 1.236 0 2.163-.847 2.809-1.752l.056 2.12c-2.5 1.611-4.774 2.855-4.774 5.681 0 2.12 1.32 3.703 3.23 3.703Zm.057-2.148c-1.152 0-1.433-1.102-1.433-1.555 0-1.724 1.292-2.685 2.977-3.816.02.525.026 1.021.028 1.458v.493c0 2.148-.561 3.42-1.572 3.42Z" fill="#27272A"></path></g></svg>