<svg width="955" height="955" xmlns="http://www.w3.org/2000/svg" xmlns:xlink="http://www.w3.org/1999/xlink" xml:space="preserve" overflow="hidden"><g transform="translate(-2608 -784)"><path d="M2608 1261.5C2608 997.784 2821.78 784 3085.5 784 3349.22 784 3563 997.784 3563 1261.5 3563 1525.22 3349.22 1739 3085.5 1739 2821.78 1739 2608 1525.22 2608 1261.5Z" fill-rule="evenodd"/><path d="M3458.25 1260.21C3474.46 1303.75 3469.09 1359.38 3450.24 1408.52 3434.76 1450.04 3412.21 1488.57 3383.59 1522.39 3354.6 1555.89 3319.86 1583.93 3281 1605.2 3202.58 1647.96 3112.29 1663.81 3024 1650.32 2947.56 1638.91 2876.73 1603.49 2821.74 1549.18 2767.44 1494.79 2729.85 1426 2713.39 1350.93 2698.64 1286.64 2699.61 1219.74 2716.22 1155.91 2732.79 1091.79 2766.58 1033.42 2813.94 987.112 2861.46 941.474 2919.69 908.523 2983.28 891.289 3046.67 874.242 3113.19 872.42 3177.42 885.973 3253.69 902 3323.5 940.432 3377.94 996.447 3403.58 1023.56 3425.19 1054.21 3442.12 1087.47 3458.69 1120.84 3470.25 1156.46 3476.43 1193.2 3478.76 1205.49 3480.17 1217.97 3480.63 1230.49 3481.82 1240.27 3480.11 1250.2 3475.65 1259.02 3472.9 1261.87 3469.79 1257.85 3466.84 1246.67 3464.92 1241.39 3463.51 1235.94 3462.63 1230.39 3460.37 1204.68 3454.28 1179.45 3444.56 1155.55 3434.79 1131.36 3423.47 1107.83 3410.66 1085.11 3385.43 1039.06 3349.58 999.678 3306.1 970.229 3262.74 941.017 3213.69 921.3 3162.17 912.373 3141.68 908.69 3120.94 906.616 3100.14 906.201 3079.3 905.602 3058.45 906.678 3037.79 909.416 2984.71 915.988 2933.68 933.926 2888.16 962.008 2808.47 1011.31 2753.35 1092.01 2736.42 1184.18 2722.1 1258.4 2729.53 1335.18 2757.82 1405.28 2788.3 1482.17 2844.66 1546 2917.18 1585.77 2953.15 1605.09 2992.25 1617.91 3032.68 1623.64 3108.41 1634.13 3185.55 1622.01 3254.41 1588.81 3283.85 1574.35 3311.14 1555.86 3335.48 1533.88 3372.53 1500.35 3401.87 1459.18 3421.48 1413.22 3430.01 1393.66 3436.91 1373.41 3442.09 1352.69 3450.73 1322.53 3456.12 1291.51 3458.23 1260.21Z" fill="#FFFFFF" fill-rule="evenodd"/><path d="M3200.4 1090.11C3212.07 1091.06 3215.82 1097.73 3217.91 1104.97 3220.77 1155.14 3226.96 1205.06 3236.45 1254.41L3237.1 1257.67C3239.42 1269.35 3241.1 1276.09 3241.1 1276.09 3251.76 1326.37 3263.11 1366.28 3264.73 1374.84L3264.99 1376.13C3265.33 1384.93 3254.65 1395 3240.25 1397.8 3225.46 1400.7 3198.32 1391.36 3122.44 1352.03 3047.08 1313.06 2996.22 1272.41 2991.67 1267.56 2992.55 1274.46 2993.38 1280.97 2994.7 1287.79L2996.07 1294.85C3003.26 1330.52 3022.96 1412.72 3025.33 1425.09L3025.59 1426.36C3025.95 1435.18 3020.53 1439.78 3012.67 1441.31 3005.27 1442.76 2986.4 1443.33 2982.11 1428.2 2955.25 1364.25 2939.29 1295.94 2939.29 1295.94 2939.29 1295.94 2937.07 1286.06 2933.97 1270.62L2932.5 1263.12C2926.86 1234.04 2919.47 1191.13 2919 1158.41 2921.12 1153.12 2930.12 1141.16 2948.42 1137.58 2966.29 1134.1 2975.67 1142.92 2977.48 1152.32L2977.74 1153.59C2978.88 1164.69 2979.76 1170.61 2980.19 1173.2L2980.5 1174.81C2984.12 1177.2 3010.57 1220.39 3080.32 1274.64 3130.38 1313.69 3184.8 1342.54 3210.16 1354.45 3208.06 1348.22 3194.83 1321.96 3179.37 1249.11 3179.37 1249.11 3177.04 1239.38 3173.94 1223.56L3172.9 1218.03C3167.89 1191.15 3161.53 1150.03 3160.44 1111.76 3162.77 1095.78 3185.86 1091.27 3185.86 1091.27 3191.74 1090.12 3196.51 1089.8 3200.4 1090.11Z" fill="#FFFFFF" fill-rule="evenodd"/></g></svg>